Complete name                    : The.Invention.of.Lying 2009.avi
Format                           : AVI
File size                        : 1.37 GiB
Duration                         : 1h 35mn
Overall bit rate                 : 2 049 Kbps

Video

Format                           : MPEG-4 Visual
Codec ID/Hint                    : XviD
Duration                         : 1h 35mn
Bit rate                         : 1 654 Kbps
Width                            : 720 pixels
Height                           : 552 pixels
Display aspect ratio             : 1.855
Stream size                      : 1.10 GiB (81%)
Writing library                  : XviD 1.1.2 (UTC 2006-11-01)

Audio

Format                           : AC-3
Duration                         : 1h 35mn
Bit rate                         : 384 Kbps
Channel(s)                       : 6 channels
Channel positions                : Front: L C R, Side: L R, LFE
Sampling rate                    : 48.0 KHz
Bit depth                        : 16 bits
Stream size                      : 263 MiB (19%)


Text #1
Language                         : English

Text #2
Language                         : German

Text #3
Language                         : Turkish

Text #4
Language                         : Arabic

Text #5
Language                         : Danish

Text #6
Language                         : Finnish

Text #7
Language                         : Icelandic

Text #8
Language                         : Norwegian

Text #9
Language                         : Swedish